<svg width="52" height="70" viewBox="0 0 52 70" fill="none" xmlns="http://www.w3.org/2000/svg">
<g clip-path="url(#clip0_0_118)">
<path fill-rule="evenodd" clip-rule="evenodd" d="M35.0765 15.4413L29.3005 2.42661C28.7005 1.22093 27.449 0 26.0017 0C24.5545 0 23.3061 1.22012 22.7038 2.4226L16.9277 15.4397C19.101 14.8517 21.5282 15.3578 23.2843 16.9895L25.9985 19.51L28.7135 16.9895C30.472 15.3562 32.9008 14.8517 35.0765 15.4413Z" fill="#1A65F5"/>
<path fill-rule="evenodd" clip-rule="evenodd" d="M16.0393 15.7477H3.6795C1.87893 15.9836 0.488281 17.9601 0.488281 19.3648C0.488281 20.7694 0.861008 21.1946 1.46982 21.8467C6.9831 26.7457 12.2659 31.5203 17.6523 36.5428C17.9425 36.8404 17.8665 37.2864 17.5431 37.5311L12.4972 39.867C12.0032 40.0491 11.5148 39.6697 11.5941 39.1828L13.1125 35.7646C13.659 34.5365 13.0922 33.0878 11.8528 32.5455C11.0669 32.2013 10.1929 32.3016 9.51779 32.7348L9.20571 32.4468L8.60821 33.7961C8.80792 33.3461 9.1289 32.9859 9.51779 32.7356L9.20571 32.4476L5.01355 41.8966C4.01341 44.8237 6.93458 47.5857 9.82827 46.4698L22.6707 40.5248C23.6684 39.9232 24.3363 38.8354 24.3363 37.5928C24.3363 36.8308 24.0856 36.128 23.6612 35.5601L16.1864 28.6196L14.1223 26.704C11.4307 24.2052 11.2893 19.9736 13.8078 17.3031C14.4538 16.6173 15.217 16.0983 16.0377 15.7485" fill="#1A65F5"/>
<path fill-rule="evenodd" clip-rule="evenodd" d="M35.9594 15.7437H48.3192C50.1198 15.9795 51.5104 17.9561 51.5104 19.3615C51.5104 20.767 51.1393 21.1913 50.5305 21.8427C45.0164 26.7416 39.7328 31.5171 34.3473 36.5395C34.057 36.8364 34.1338 37.284 34.4564 37.5278L39.5024 39.863C39.9964 40.0451 40.4855 39.6665 40.4055 39.1787L38.8871 35.7606C38.3405 34.5325 38.9073 33.0829 40.1459 32.5406C40.9318 32.1965 41.8066 32.2976 42.4809 32.7308L42.793 32.442L43.3913 33.7905C43.1916 33.3404 42.8706 32.9802 42.4809 32.7316L42.793 32.4428L46.9868 41.8917C47.9861 44.8197 45.0666 47.5816 42.1721 46.465L29.3296 40.52C28.3311 39.92 27.6641 38.8314 27.6641 37.588C27.6641 36.8259 27.9139 36.124 28.3376 35.5553L35.8115 28.6148L37.8756 26.6999C40.5672 24.2003 40.7087 19.9696 38.1901 17.2991C37.5433 16.6133 36.7809 16.095 35.9602 15.7445" fill="#1A65F5"/>
<path fill-rule="evenodd" clip-rule="evenodd" d="M18.5002 28.5289L18.978 29.003L26.0016 35.9732L33.0268 29.003L33.5014 28.5321H30.6926C29.5065 28.5321 29.517 28.6645 29.1702 27.7781C28.457 25.97 28.6503 25.8962 28.0803 27.7701L26.6937 32.3393C25.9191 34.8935 26.1819 34.8726 25.32 32.3514C24.9917 31.3935 24.6408 30.4438 24.336 29.4795C23.9932 28.3974 24.1468 28.5289 22.8419 28.5289H18.501H18.5002ZM24.0183 20.0659C22.0867 18.1487 18.9254 18.1487 16.9931 20.0659C15.0615 21.9823 15.0615 25.1172 16.9931 27.0337L17.0748 27.1139H23.9229C24.8203 27.1139 25.0103 27.0393 25.2109 27.6393C26.0857 30.2745 25.835 30.2665 26.6403 27.6112L27.7051 24.1033C28.5233 21.4071 28.17 21.489 29.2227 24.1049C29.5453 24.9031 29.8501 25.7093 30.1889 26.501C30.5091 27.247 30.9554 27.1187 31.9644 27.1187H34.926L35.0109 27.0345C36.9432 25.118 36.9432 21.9831 35.0101 20.0667C33.0777 18.1495 29.918 18.1495 27.9865 20.0667L26.0024 22.0352L24.0191 20.0667L24.0183 20.0659Z" fill="#FF7BAC"/>
<path d="M20.0071 54.3636V66H18.1321L12.6491 58.0739H12.5526V66H10.4446V54.3636H12.331L17.8082 62.2955H17.9105V54.3636H20.0071ZM26.2472 66H22.304V54.3636H26.3267C27.482 54.3636 28.4744 54.5966 29.304 55.0625C30.1373 55.5246 30.7775 56.1894 31.2244 57.0568C31.6714 57.9242 31.8949 58.9621 31.8949 60.1705C31.8949 61.3826 31.6695 62.4242 31.2188 63.2955C30.7718 64.1667 30.1259 64.8352 29.2812 65.3011C28.4403 65.767 27.429 66 26.2472 66ZM24.4119 64.1761H26.1449C26.9555 64.1761 27.6316 64.0284 28.1733 63.733C28.715 63.4337 29.1222 62.9886 29.3949 62.3977C29.6676 61.803 29.804 61.0606 29.804 60.1705C29.804 59.2803 29.6676 58.5417 29.3949 57.9545C29.1222 57.3636 28.7188 56.9223 28.1847 56.6307C27.6544 56.3352 26.9953 56.1875 26.2074 56.1875H24.4119V64.1761ZM34.767 66H32.517L36.6136 54.3636H39.2159L43.3182 66H41.0682L37.9602 56.75H37.8693L34.767 66ZM34.8409 61.4375H40.9773V63.1307H34.8409V61.4375Z" fill="#1A65F5"/>
</g>
<defs>
<clipPath id="clip0_0_118">
<rect width="52" height="70" fill="white"/>
</clipPath>
</defs>
</svg>
