<svg width="24" height="24" viewBox="0 0 24 24" fill="none" xmlns="http://www.w3.org/2000/svg">
<path d="M14.8027 0.934326H11.9998V2.68614H13.9268V5.98539C13.9268 8.8832 11.5691 11.2409 8.67131 11.2409C5.7735 11.2409 3.41588 8.88325 3.41588 5.98544V2.68614H5.2845V0.934326H2.53997C2.05617 0.934326 1.66406 1.32644 1.66406 1.81023V5.98544C1.66406 9.84939 4.80741 12.9927 8.67136 12.9927C12.5353 12.9927 15.6787 9.84939 15.6787 5.98544V1.81023C15.6787 1.32644 15.2865 0.934326 14.8027 0.934326Z" fill="#8BACED"/>
<path d="M18.219 13.7226V17.8686C18.219 20.2835 16.2543 22.2482 13.8394 22.2482C11.4245 22.2482 9.45982 20.2835 9.45982 17.8686V12.146H7.70801V17.8686C7.70801 21.2493 10.4584 24 13.8394 24C17.2201 24 19.9708 21.2493 19.9708 17.8686V13.7226H18.219Z" fill="#8BACED"/>
<path d="M19.0952 8.05838C17.3077 8.05838 15.854 9.51211 15.854 11.2993C15.854 13.0861 17.3077 14.5402 19.0949 14.5402C20.8821 14.5402 22.3358 13.0861 22.3361 11.2993C22.336 9.51211 20.8821 8.05838 19.0952 8.05838ZM19.0949 12.7883C18.2736 12.7883 17.6055 12.1203 17.6055 11.2993C17.6055 10.4783 18.2736 9.81029 19.0949 9.81029C19.9159 9.81029 20.5839 10.4783 20.5839 11.2993C20.5839 12.1203 19.9159 12.7883 19.0949 12.7883Z" fill="#8BACED"/>
<path d="M5.2553 0C4.7715 0 4.37939 0.392109 4.37939 0.875906V2.74453C4.37939 3.22833 4.7715 3.62044 5.2553 3.62044C5.7391 3.62044 6.13121 3.22833 6.13121 2.74453V0.875906C6.13121 0.392109 5.7391 0 5.2553 0Z" fill="#8BACED"/>
<path d="M12.0292 0C11.5454 0 11.1533 0.392109 11.1533 0.875906V2.74453C11.1533 3.22833 11.5454 3.62044 12.0292 3.62044C12.513 3.62044 12.9051 3.22833 12.9051 2.74453V0.875906C12.9051 0.392109 12.513 0 12.0292 0Z" fill="#8BACED"/>
</svg>
