<svg width="24" height="24" viewBox="0 0 24 24" fill="none" xmlns="http://www.w3.org/2000/svg">
<path d="M14.8027 0.934326H11.9998V2.68614H13.9268V5.98539C13.9268 8.8832 11.5691 11.2409 8.67131 11.2409C5.7735 11.2409 3.41588 8.88325 3.41588 5.98544V2.68614H5.2845V0.934326H2.53997C2.05617 0.934326 1.66406 1.32644 1.66406 1.81023V5.98544C1.66406 9.84939 4.80741 12.9927 8.67136 12.9927C12.5353 12.9927 15.6787 9.84939 15.6787 5.98544V1.81023C15.6787 1.32644 15.2865 0.934326 14.8027 0.934326Z" fill="#1A65F5"/>
<path d="M18.2187 13.7226V17.8686C18.2187 20.2835 16.2541 22.2482 13.8392 22.2482C11.4242 22.2482 9.45958 20.2835 9.45958 17.8686V12.146H7.70776V17.8686C7.70776 21.2493 10.4581 24 13.8392 24C17.2199 24 19.9705 21.2493 19.9705 17.8686V13.7226H18.2187Z" fill="#1A65F5"/>
<path d="M19.0949 8.05838C17.3075 8.05838 15.8538 9.51211 15.8538 11.2993C15.8538 13.0861 17.3075 14.5402 19.0947 14.5402C20.8818 14.5402 22.3355 13.0861 22.3358 11.2993C22.3358 9.51211 20.8818 8.05838 19.0949 8.05838ZM19.0947 12.7883C18.2734 12.7883 17.6053 12.1203 17.6053 11.2993C17.6053 10.4783 18.2733 9.81029 19.0947 9.81029C19.9157 9.81029 20.5837 10.4783 20.5837 11.2993C20.5837 12.1203 19.9157 12.7883 19.0947 12.7883Z" fill="#1A65F5"/>
<path d="M5.2553 0C4.7715 0 4.37939 0.392109 4.37939 0.875906V2.74453C4.37939 3.22833 4.7715 3.62044 5.2553 3.62044C5.7391 3.62044 6.13121 3.22833 6.13121 2.74453V0.875906C6.13121 0.392109 5.7391 0 5.2553 0Z" fill="#1A65F5"/>
<path d="M12.029 0C11.5452 0 11.1531 0.392109 11.1531 0.875906V2.74453C11.1531 3.22833 11.5452 3.62044 12.029 3.62044C12.5128 3.62044 12.9049 3.22833 12.9049 2.74453V0.875906C12.9049 0.392109 12.5128 0 12.029 0Z" fill="#1A65F5"/>
</svg>
